<?xml version="1.0" encoding="iso-8859-1"?>
<!-- Generator: Adobe Illustrator 19.0.0, SVG Export Plug-In . SVG Version: 6.00 Build 0)  -->
<svg version="1.1" id="Layer_1" xmlns="http://www.w3.org/2000/svg" xmlns:xlink="http://www.w3.org/1999/xlink" x="0px" y="0px"
	 viewBox="0 0 512 512" style="enable-background:new 0 0 512 512;" xml:space="preserve">
<circle style="fill:#FF7F4F;" cx="256" cy="256" r="256"/>
<path style="fill:#E03A00;" d="M511.998,256c0-2.782-0.06-5.549-0.148-8.311L359.669,95.508L152.171,416.332l95.541,95.52
	C250.465,511.94,253.225,512,256,512C397.384,512,511.998,397.384,511.998,256z"/>
<path style="fill:#FFFFFF;" d="M335.155,426.667H176.843c-19.122,0-34.623-15.501-34.623-34.621V119.956
	c0-19.122,15.501-34.623,34.623-34.623h158.311c19.122,0,34.623,15.501,34.623,34.623v272.089
	C369.778,411.165,354.276,426.667,335.155,426.667z"/>
<path style="fill:#C9C9C9;" d="M335.155,85.333h-79.731v341.333h79.731c19.122,0,34.621-15.501,34.621-34.621V119.955
	C369.778,100.835,354.276,85.333,335.155,85.333z"/>
<path style="fill:#C2001B;" d="M215.452,262.961L215.452,262.961l31.775,31.78c4.72,4.722,12.374,4.722,17.096,0l32.359-32.359l0,0
	c11.169-11.169,11.169-29.279,0-40.448c-11.169-11.169-29.579-10.85-40.748,0.319c-11.169-11.169-29.579-11.169-40.748,0
	C204.017,233.422,204.281,251.792,215.452,262.961z"/>
<path style="fill:#940030;" d="M296.682,221.936c-11.169-11.169-29.579-10.85-40.748,0.319c-0.164-0.164-0.341-0.3-0.509-0.459
	v76.471c3.208,0.093,6.447-1.074,8.897-3.524l32.359-32.359C307.852,251.214,307.852,233.105,296.682,221.936z"/>
<path style="fill:#C2001B;" d="M166.05,136.171L166.05,136.171l11.724,11.726c1.741,1.741,4.565,1.743,6.308,0l11.94-11.94l0,0
	c4.122-4.12,4.122-10.802,0-14.924s-10.914-4.003-15.034,0.117c-4.122-4.122-10.914-4.122-15.034,0
	C161.83,125.273,161.928,132.049,166.05,136.171z"/>
<path style="fill:#940030;" d="M316.03,387.946L316.03,387.946l11.724,11.726c1.741,1.741,4.565,1.743,6.308,0l11.94-11.94l0,0
	c4.122-4.12,4.122-10.802,0-14.924s-10.914-4.003-15.034,0.117c-4.122-4.122-10.914-4.122-15.034,0
	C311.813,377.047,311.908,383.826,316.03,387.946z"/>
<g>
</g>
<g>
</g>
<g>
</g>
<g>
</g>
<g>
</g>
<g>
</g>
<g>
</g>
<g>
</g>
<g>
</g>
<g>
</g>
<g>
</g>
<g>
</g>
<g>
</g>
<g>
</g>
<g>
</g>
</svg>
